<?xml version="1.0" encoding="UTF-8"?> <svg xmlns="http://www.w3.org/2000/svg" width="395" height="404" viewBox="0 0 395 404" fill="none"> <path d="M164.1 66.5L162.3 54.2L161.9 51.7L159.5 35.6L132.5 39.5L134.9 55.9L51.9 68L49.5 51.6L22.5 55.5L30.6 110.8L39.4 171.2L182.8 195.8L164.1 66.5ZM170.2 169L160.5 170.4L157.3 148.5L167 147.1L170.2 169ZM161.5 109.6L164.7 131.6L155 133L151.8 111L161.5 109.6ZM156.1 72L159.3 94L149.6 95.4L146.4 73.4L156.1 72ZM46.1 88L49.3 109.9L39.6 111.3L36.4 89.3L46.1 88ZM45.1 148.9L41.9 126.9L51.6 125.5L54.8 147.5L45.1 148.9Z" fill="#D72846"></path> <g opacity="0.4"> <g opacity="0.4"> <path opacity="0.4" d="M30.7 110.7L39.5 171.1L182.9 195.7L30.7 110.7ZM41.9 127L51.6 125.6L54.8 147.6L45.1 149L41.9 127Z" fill="#000032"></path> </g> </g> <path d="M39.5 171.1L23.4 168.3L18.8 195.2L35.1 198L20.9 280.6L4.6 277.8L0 304.7L55.1 314.1L115.2 324.4L182.9 195.6L39.5 171.1ZM131.8 195.7L153.7 199.4L152 209.1L130.1 205.4L131.8 195.7ZM94.4 189.3L116.3 193L114.6 202.7L92.7 198.9L94.4 189.3ZM57 182.9L78.9 186.7L77.2 196.4L55.3 192.6L57 182.9ZM36.6 302.1L38.3 292.4L60.2 296.2L58.5 305.9L36.6 302.1ZM95.9 312.3L74 308.5L75.7 298.8L97.6 302.6L95.9 312.3Z" fill="#FAA014"></path> <g opacity="0.4"> <g opacity="0.4"> <path opacity="0.4" d="M55.1 314.1L115.2 324.4L182.9 195.6L55.1 314.1ZM95.9 312.3L74 308.5L75.7 298.8L97.6 302.6L95.9 312.3Z" fill="#000032"></path> </g> </g> <path d="M182.9 195.7L115.2 324.5L107.6 339L131.7 351.7L139.4 337L213.7 376L206 390.6L230.1 403.3L256.1 353.9L284.5 299.9L182.9 195.7ZM140.6 316L131.9 311.4L142.2 291.7L150.9 296.3L140.6 316ZM158.2 282.4L149.5 277.8L159.8 258.1L168.5 262.7L158.2 282.4ZM175.9 248.8L167.2 244.2L177.5 224.5L186.2 229.1L175.9 248.8ZM238.9 367.7L230.2 363.1L240.5 343.4L249.2 348L238.9 367.7ZM247.9 329.5L258.2 309.8L266.9 314.4L256.6 334.1L247.9 329.5Z" fill="#00A5F0"></path> <g opacity="0.4"> <g opacity="0.4"> <path opacity="0.4" d="M182.9 195.7L256.1 353.9L284.5 299.9L182.9 195.7ZM247.9 329.5L258.2 309.8L266.9 314.4L256.6 334.1L247.9 329.5Z" fill="#000032"></path> </g> </g> <path d="M355.9 174.9L313.3 131.2L182.8 195.6L284.4 299.8L295.8 311.5L315.3 292.5L303.8 280.6L363.8 222.1L375.4 233.9L394.9 214.9L355.9 174.9ZM321.8 152.4L337.3 168.3L330.3 175.2L314.8 159.3L321.8 152.4ZM224.2 225.6L208.7 209.7L215.7 202.8L231.2 218.7L224.2 225.6ZM250.7 252.8L235.2 236.9L242.2 230L257.7 245.9L250.7 252.8ZM277.2 279.9L261.7 264L268.7 257.1L284.2 273L277.2 279.9ZM356.8 202.3L341.3 186.4L348.3 179.6L363.8 195.5L356.8 202.3Z" fill="#192DB9"></path> <g opacity="0.4"> <g opacity="0.4"> <path opacity="0.4" d="M313.4 131.2L182.9 195.6L355.9 174.9L313.4 131.2ZM314.8 159.3L321.8 152.5L337.3 168.4L330.3 175.3L314.8 159.3Z" fill="#000032"></path> </g> </g> <path d="M315.9 99.6L301.1 106.9L264 31.7L278.8 24.4L266.7 0L216.6 24.7L161.9 51.7L162.2 54.2L164 66.5L182.8 195.7L313.3 131.3L327.9 124.1L315.9 99.6ZM204.6 40.3L209 49.1L189.1 58.9L184.7 50.1L204.6 40.3ZM238.6 23.5L243 32.3L223.1 42.1L218.7 33.3L238.6 23.5ZM204.3 175.4L199.9 166.6L219.8 156.8L224.1 165.6L204.3 175.4ZM238.3 158.6L233.9 149.8L253.8 140L258.1 148.8L238.3 158.6ZM272.3 141.8L267.9 133L287.8 123.2L292.2 132L272.3 141.8Z" fill="#6423D2"></path> <g opacity="0.4"> <g opacity="0.4"> <path opacity="0.4" d="M161.9 51.7L162.2 54.2L164 66.4999L182.8 195.7L216.5 24.7L161.9 51.7ZM184.7 50.0999L204.6 40.3L209 49.0999L189.1 58.8999L184.7 50.0999Z" fill="#000032"></path> </g> </g> </svg> 